<?xml version="1.0" encoding="UTF-8"?>
<svg version="1.1" xmlns="http://www.w3.org/2000/svg" width="512" height="512">
<path d="M0 0 C4.64507597 2.20029914 6.66899298 4.50947694 9 9 C9.52709487 11.15097301 9.98287185 13.32037861 10.375 15.5 C11.51838965 20.71597855 12.35009098 23.93528724 17 27 C21.73297489 28.60140575 25.84431522 29.24897878 30.82852173 29.24482727 C31.80378722 29.24822413 31.80378722 29.24822413 32.79875505 29.25168961 C34.95789858 29.25694855 37.11675003 29.24818464 39.27587891 29.23950195 C40.83215425 29.24061591 42.38842916 29.24267541 43.94470215 29.24560547 C47.28786184 29.25031639 50.63095122 29.24921921 53.97410965 29.24382973 C59.27107007 29.23619548 64.56789626 29.24690415 69.86483765 29.2610321 C84.92470821 29.29869849 99.98451798 29.31698696 115.04443359 29.30541992 C123.36846896 29.29918417 131.69228705 29.31088288 140.01626909 29.34186524 C145.2706171 29.36042322 150.52434503 29.35729322 155.77868199 29.33769763 C159.06372596 29.3307658 162.34844135 29.3448709 165.63342285 29.36464691 C167.1437684 29.36965079 168.65417116 29.36632309 170.16447067 29.35351372 C185.28046108 29.23454115 196.65571842 33.15786439 207.671875 43.58203125 C214.21922899 50.51750159 219.09723361 60.12375528 219.14717102 69.73246765 C219.15790398 71.15530563 219.15790398 71.15530563 219.16885376 72.60688782 C219.17154266 73.64113388 219.17423157 74.67537994 219.17700195 75.7409668 C219.18357315 76.83590454 219.19014435 77.93084229 219.19691467 79.05895996 C219.21664867 82.68904696 219.22831573 86.3190924 219.23828125 89.94921875 C219.24235678 91.19307657 219.2464323 92.43693439 219.25063133 93.71848488 C219.2693493 99.63291196 219.28390797 105.54732597 219.2922433 111.46177548 C219.30196842 118.24788479 219.32816111 125.0336638 219.36874419 131.81965703 C219.40283566 137.72708096 219.4144127 143.63439685 219.41844749 149.54191017 C219.42328551 152.03706908 219.43481879 154.53222518 219.45348549 157.02731895 C219.69062079 190.84917197 210.2738748 218.22673847 186.50390625 242.5546875 C174.25027832 254.18456754 159.2464493 262.05815307 143.08203125 266.671875 C142.30138306 266.89794434 141.52073486 267.12401367 140.71643066 267.35693359 C138.81191431 267.90795325 136.90608997 268.4544487 135 269 C135.8577825 269.00219984 135.8577825 269.00219984 136.73289394 269.00444412 C150.7255569 269.04169206 164.71798712 269.10094148 178.71045589 269.18390274 C185.47746553 269.22350799 192.24436199 269.25599347 199.01147461 269.27099609 C205.55391268 269.2855215 212.09605519 269.32084266 218.63833809 269.36830902 C221.12227878 269.38303577 223.60626963 269.39103595 226.09025383 269.39188385 C259.8726447 269.41499208 287.23788146 278.73701262 311.5546875 302.49609375 C333.09647633 325.19323804 339.20583949 352.94479508 339.35009766 383.23706055 C339.36661824 385.7749145 339.39385608 388.31272268 339.43212891 390.8503418 C339.48734638 394.53718856 339.5088425 398.22294974 339.5234375 401.91015625 C339.54610687 403.02729507 339.56877625 404.1444339 339.59213257 405.29542542 C339.55680546 418.69220221 334.49570776 429.07861007 325.41796875 438.671875 C318.02034095 445.65552363 308.29136313 450.14944573 298.140625 450.09765625 C297.13547852 450.09515869 296.13033203 450.09266113 295.09472656 450.09008789 C293.8259668 450.08098389 292.55720703 450.07187988 291.25 450.0625 C287.2075 450.041875 283.165 450.02125 279 450 C279 460.56 279 471.12 279 482 C285.64154623 481.84252727 285.64154623 481.84252727 292.28173828 481.63964844 C298.01572442 481.57126853 301.58393663 481.95538121 306 486 C310.05630398 491.22259857 309.77397544 496.65340142 309 503 C306.8170932 507.6083588 304.51319858 509.75414788 300 512 C297.00063664 512.37719816 297.00063664 512.37719816 293.59185886 512.38031673 C292.28978066 512.38875668 290.98770246 512.39719662 289.64616734 512.40589231 C288.20295829 512.40009717 286.75975036 512.39401615 285.31654358 512.38768005 C283.78207475 512.39185249 282.24760901 512.39732951 280.71314901 512.40399987 C276.49458266 512.41848508 272.27621116 512.41420019 268.057634 512.40683305 C263.50880691 512.40211128 258.96002258 512.41460243 254.41120911 512.42485046 C245.49902578 512.44206318 236.58691289 512.44287337 227.67471725 512.43763756 C220.43231701 512.43359929 213.18993762 512.43503534 205.94753838 512.44038582 C204.91751378 512.44113424 203.88748919 512.44188266 202.82625173 512.44265376 C200.73388978 512.44418521 198.64152784 512.44572356 196.5491659 512.44726873 C176.91907859 512.46100268 157.28903112 512.45554976 137.65894472 512.44408352 C119.69279935 512.4341498 101.72675694 512.44709263 83.76062746 512.47101771 C65.32088711 512.49538883 46.88119475 512.5050215 28.44143862 512.49836498 C18.08574107 512.49486839 7.73012273 512.49713384 -2.62556267 512.51461601 C-11.44099437 512.52931314 -20.25629108 512.53000607 -29.07172006 512.5125451 C-33.57069968 512.50401223 -38.0694379 512.50194114 -42.56840515 512.51719666 C-46.68586921 512.53098587 -50.80288374 512.52635545 -54.92032141 512.50695742 C-56.41084624 512.5031793 -57.90140659 512.50617132 -59.39189994 512.51656907 C-61.41657037 512.52969033 -63.44136205 512.5158014 -65.46601772 512.50057125 C-66.59107674 512.50046391 -67.71613576 512.50035658 -68.87528747 512.50024599 C-73.69257485 511.72902986 -76.88203421 509.4394105 -79.84765625 505.62109375 C-81.93568681 500.87170897 -81.61920957 496.07751849 -81 491 C-78.83283812 486.42488049 -76.59067987 484.05870695 -72 482 C-68.38583362 481.63735595 -64.81499952 481.71821783 -61.1875 481.8125 C-57.825625 481.874375 -54.46375 481.93625 -51 482 C-51 471.44 -51 460.88 -51 450 C-54.856875 450.103125 -58.71375 450.20625 -62.6875 450.3125 C-78.14452576 450.45389649 -88.28907531 447.18907593 -99.671875 436.41796875 C-106.42449291 429.26506679 -111.07120587 419.62092524 -111.17700195 409.7668457 C-111.18983719 408.72087723 -111.20267242 407.67490875 -111.21589661 406.59724426 C-111.22328354 405.46816147 -111.23067047 404.33907867 -111.23828125 403.17578125 C-111.246353 402.00097702 -111.25442474 400.82617279 -111.26274109 399.61576843 C-111.27657869 397.1217089 -111.28730229 394.62763045 -111.29516602 392.13354492 C-111.30661668 389.60939904 -111.32695672 387.08527603 -111.35668945 384.5612793 C-111.73183785 352.69881551 -104.53706356 324.47643679 -82 301 C-65.13743762 283.76492151 -40.48331464 270.33276869 -15.95059204 269.84178162 C-13.91843936 269.82122021 -11.88622975 269.80587676 -9.85400391 269.79467773 C-8.7412207 269.78477814 -7.6284375 269.77487854 -6.48193359 269.76467896 C-2.81349801 269.7331583 0.85495051 269.7083438 4.5234375 269.68359375 C7.07077364 269.66301608 9.61810642 269.6420194 12.16543579 269.62062073 C18.1788457 269.57111586 24.19227299 269.5258289 30.20573008 269.48259836 C37.05462083 269.43312558 43.90346494 269.37824486 50.75231051 269.32291877 C64.8348301 269.20927859 78.91739452 269.10240081 93 269 C91.24228775 268.49326248 91.24228775 268.49326248 89.44906616 267.97628784 C87.89878182 267.52584114 86.34854205 267.07524102 84.79833984 266.62451172 C84.02751572 266.40272751 83.25669159 266.1809433 82.46250916 265.95243835 C77.26417935 264.43662885 72.3979868 262.70975797 67.625 260.125 C66.96838379 259.78041748 66.31176758 259.43583496 65.63525391 259.08081055 C63.74443709 258.0747664 61.87062728 257.04299435 60 256 C59.02546875 255.46761719 58.0509375 254.93523437 57.046875 254.38671875 C32.31956152 239.81784838 17.82849595 215.2651768 10.52148438 188.24731445 C9.38640265 183.35572867 8.86637711 178.64639745 8.79467773 173.62744141 C8.7647599 171.76619125 8.7647599 171.76619125 8.73423767 169.86734009 C8.71725879 168.52874879 8.70037979 167.19015623 8.68359375 165.8515625 C8.66299822 164.47007665 8.6420011 163.08859673 8.62062073 161.7071228 C8.56566822 158.08718702 8.51614176 154.46719692 8.46777344 150.84716797 C8.41736139 147.14676125 8.36177862 143.44643253 8.30664062 139.74609375 C8.19938759 132.49746205 8.097871 125.24876509 8 118 C7.31238586 117.66348923 6.62477173 117.32697845 5.9163208 116.98027039 C5.01484314 116.53520645 4.11336548 116.09014252 3.18457031 115.6315918 C2.29070618 115.19195602 1.39684204 114.75232025 0.47589111 114.29936218 C-9.93854367 108.83380571 -16.75547521 98.96056895 -20.34733582 87.97396851 C-21.79990656 81.35509811 -21.44972513 74.4540204 -21.43359375 67.70703125 C-21.43816162 66.03032725 -21.44346899 64.35362511 -21.44947815 62.67692566 C-21.4583745 59.17784981 -21.45602359 55.67900267 -21.44604492 52.17993164 C-21.43452219 47.7043208 -21.45483439 43.2294951 -21.48396206 38.75398731 C-21.50233016 35.29749071 -21.50203106 31.84118244 -21.49632454 28.38464928 C-21.4961716 26.73448263 -21.5021934 25.08430301 -21.51461601 23.43418312 C-21.52954761 21.12725344 -21.51883723 18.82177771 -21.50170898 16.51489258 C-21.50154282 15.20523026 -21.50137665 13.89556793 -21.50120544 12.54621887 C-20.78168546 7.4553417 -18.6549569 4.28537704 -14.62109375 1.15234375 C-9.87170897 -0.93568681 -5.07751849 -0.61920957 0 0 Z M9 58 C8.9455793 60.68777802 8.90612734 63.37443212 8.875 66.0625 C8.85824219 66.81466797 8.84148437 67.56683594 8.82421875 68.34179688 C8.77025393 74.57473384 9.20361474 79.92724778 13.4375 84.8125 C19.18510856 89.71899511 23.47379877 90.12587544 30.86531067 90.12025452 C31.54336893 90.12110894 32.2214272 90.12196337 32.92003268 90.12284368 C35.18475272 90.12448657 37.44939815 90.11899668 39.71411133 90.11352539 C41.34044391 90.11324324 42.96677662 90.11340181 44.59310913 90.1139679 C49.00384057 90.11425476 53.41454481 90.10837582 57.82526994 90.10139394 C62.43638359 90.09514207 67.04749787 90.09455515 71.65861511 90.09336853 C80.38849055 90.09026063 89.11835346 90.08205451 97.84822339 90.07201904 C107.78768903 90.06084113 117.72715526 90.05534322 127.66662562 90.05032361 C148.11109074 90.03987147 168.55554458 90.02228247 189 90 C189.05454409 87.64551325 189.0939279 85.29232125 189.125 82.9375 C189.14820313 81.62652344 189.17140625 80.31554687 189.1953125 78.96484375 C188.92362239 73.44953455 188.21645565 69.40360267 184.5625 65.1875 C178.89308012 60.34775132 174.64678745 59.88064962 167.3581543 59.84851074 C166.70404162 59.84427833 166.04992895 59.84004592 165.37599468 59.83568525 C163.19206696 59.82270654 161.0081757 59.81664553 158.82421875 59.81054688 C157.25525695 59.80260073 155.68629734 59.79421247 154.11734009 59.78541565 C150.74250932 59.76738244 147.3676833 59.75235839 143.99282837 59.73963928 C138.65623895 59.71939188 133.31970359 59.69174338 127.9831543 59.66296387 C116.65546154 59.60291652 105.32773637 59.55104254 94 59.5 C81.77076477 59.44489532 69.54154593 59.38840195 57.31236362 59.32245111 C52.00750825 59.29412272 46.70265916 59.27051943 41.39776611 59.25052643 C38.09792654 59.2371288 34.79811699 59.21971713 31.49830246 59.20121574 C29.96847672 59.1934678 28.43864143 59.18739468 26.90880203 59.18312263 C24.81976563 59.17706147 22.73084525 59.16500605 20.6418457 59.15148926 C19.47305374 59.14633553 18.30426178 59.14118179 17.10005188 59.13587189 C14.28300603 59.01240385 11.73931503 58.64450639 9 58 Z M39 120 C37.20757946 174.73133216 37.20757946 174.73133216 62 219 C69.50951783 226.34405387 78.52455315 230.74039545 88 235 C88.79019531 235.36222656 89.58039063 235.72445312 90.39453125 236.09765625 C107.8865857 242.96337388 128.25059152 240.25336266 145 233 C164.51884115 224.1756926 177.42083677 208.63404402 185 189 C192.16833575 167.36273564 189 141.53875091 189 120 C139.5 120 90 120 39 120 Z M-62.24609375 325.3359375 C-78.44756977 344.34819591 -81.1754675 366.06700888 -81.1875 390.3125 C-81.19974609 391.63056641 -81.21199219 392.94863281 -81.22460938 394.30664062 C-81.22654297 395.58345703 -81.22847656 396.86027344 -81.23046875 398.17578125 C-81.23457764 399.31958252 -81.23868652 400.46338379 -81.24291992 401.6418457 C-80.86408654 406.87888408 -80.0307597 410.81066188 -76.5625 414.8125 C-70.58536096 419.91493576 -65.8241321 420.15750116 -58.1875 420.0625 C-57.14819336 420.05573242 -57.14819336 420.05573242 -56.08789062 420.04882812 C-54.39188932 420.03713156 -52.69593297 420.01919924 -51 420 C-50.99857498 419.33982376 -50.99714996 418.67964752 -50.99568176 417.99946594 C-50.97585484 411.07109066 -50.921305 404.14358108 -50.84741211 397.21557617 C-50.82434612 394.63686351 -50.80986344 392.05805817 -50.80444336 389.47924805 C-50.79507064 385.75251252 -50.75389507 382.0272122 -50.70703125 378.30078125 C-50.71293022 376.59683952 -50.71293022 376.59683952 -50.71894836 374.85847473 C-50.47918382 361.42987773 -45.62141208 350.38230896 -36.0078125 341.0703125 C-22.51127316 329.55128808 -7.64385542 330.27776254 9.13671875 330.35302734 C11.67909368 330.34624407 14.22146368 330.33733696 16.76382446 330.32647705 C22.92745275 330.3061156 29.09068154 330.30899715 35.25431466 330.32354026 C40.2677435 330.33487533 45.28108714 330.33634506 50.29452515 330.33092117 C51.0106043 330.33015501 51.72668346 330.32938884 52.46446198 330.32859946 C53.91958756 330.32700068 55.37471311 330.32537961 56.82983863 330.3237365 C70.44469699 330.30951061 84.05938646 330.3258219 97.6742171 330.35273834 C109.33270059 330.37507429 120.99093507 330.37119327 132.64941406 330.34814453 C146.21864952 330.32133044 159.78773732 330.31088361 173.35699558 330.32620585 C174.80648865 330.32779844 176.25598174 330.3293703 177.70547485 330.33092117 C178.41847943 330.33169255 179.131484 330.33246393 179.86609477 330.33325868 C184.8680721 330.3375589 189.86995502 330.33032555 194.87191772 330.31852341 C201.6158117 330.30295953 208.35916587 330.31418766 215.10303879 330.34299469 C217.5712443 330.34958008 220.03948952 330.34775177 222.50767899 330.33668137 C239.2301405 330.26861848 253.300921 330.69932348 266 343 C275.60965117 352.92089493 278.75383982 364.7799361 278.70703125 378.30078125 C278.72215256 379.5031694 278.73727386 380.70555756 278.75285339 381.94438171 C278.79537736 385.73395054 278.80453472 389.52271742 278.8125 393.3125 C278.83567156 395.90301559 278.86104235 398.4935125 278.88867188 401.08398438 C278.9511755 407.38933081 278.98638903 413.69436835 279 420 C281.35448675 420.05454409 283.70767875 420.0939279 286.0625 420.125 C287.37347656 420.14820313 288.68445313 420.17140625 290.03515625 420.1953125 C295.55046545 419.92362239 299.59639733 419.21645565 303.8125 415.5625 C310.22773194 408.04751401 309.20417221 400.19245512 309.1875 390.75 C309.18656342 390.07493408 309.18562683 389.39986816 309.18466187 388.7043457 C309.10563802 362.50424176 304.5002453 340.65823383 286 321 C269.00474068 304.62894052 247.56468136 299.82670933 224.59761047 299.86628723 C223.11811654 299.8628889 223.11811654 299.8628889 221.60873383 299.85942191 C218.33590472 299.85314125 215.06311764 299.85390743 211.7902832 299.85473633 C209.4304143 299.85174112 207.07054588 299.84833776 204.7106781 299.84455872 C198.32202655 299.83575112 191.93338841 299.83338196 185.54473138 299.83274293 C181.54692685 299.83203056 177.54912458 299.82995615 173.55132103 299.82724571 C160.30567769 299.8184497 147.06004241 299.81382467 133.81439612 299.81457619 C132.74575124 299.81463612 132.74575124 299.81463612 131.65551758 299.81469727 C130.58555064 299.81475859 130.58555064 299.81475859 129.49396821 299.81482115 C117.94331325 299.81522728 106.39269093 299.80566311 94.8420454 299.7915589 C82.94936708 299.77715295 71.05670464 299.77029103 59.16401738 299.77115268 C52.50029201 299.7714832 45.8365961 299.76860203 39.17287636 299.75797462 C32.90110948 299.74824475 26.62941455 299.74824782 20.35764503 299.75549126 C18.06646112 299.75653105 15.77527261 299.75421051 13.48409653 299.7481308 C-15.82290008 299.6754507 -40.81859914 303.0513431 -62.24609375 325.3359375 Z M-18 367 C-39.27074151 398.90611227 -21 443.65362541 -21 482 C68.1 482 157.2 482 249 482 C259.54112589 418.83389105 259.54112589 418.83389105 244.5625 365.1875 C238.07361298 359.6482062 232.48544388 359.85248437 224.33450317 359.86628723 C222.86542458 359.8628889 222.86542458 359.8628889 221.36666763 359.85942191 C218.08183547 359.85308705 214.79704463 359.85391095 211.51220703 359.85473633 C209.15832465 359.85174453 206.80444276 359.84834196 204.45056152 359.84455872 C198.05389476 359.83571695 191.65724138 359.83338054 185.2605691 359.83274293 C180.59512314 359.83216597 175.92967945 359.82901462 171.26423457 359.82590645 C158.71831573 359.81760247 146.17240399 359.8138641 133.6264825 359.81457619 C132.55816321 359.81463612 132.55816321 359.81463612 131.46826172 359.81469727 C130.75517785 359.81473815 130.04209399 359.81477903 129.30740152 359.81482115 C117.75028505 359.81522762 106.19320116 359.8056573 94.63609411 359.7915589 C82.76511942 359.77719204 70.89416063 359.77028888 59.02317703 359.77115268 C52.36020823 359.77148453 45.69726881 359.76854799 39.03430557 359.75797462 C32.76839159 359.74830291 26.50254981 359.74820815 20.2366333 359.75549126 C17.93683644 359.75653822 15.63703511 359.75416759 13.33724594 359.7481308 C10.19790013 359.7404239 7.05880446 359.74504721 3.91946411 359.75276184 C3.00943701 359.74761828 2.09940991 359.74247471 1.16180623 359.73717529 C-6.88801469 359.78088865 -12.49905332 360.55603389 -18 367 Z " fill="#FD6887" transform="translate(142,0)"/>
<path d="M0 0 C4.61581142 2.18643699 6.72864085 4.49599804 9 9 C9.82885269 14.54808604 9.7240695 19.47140883 7.3125 24.5625 C4.21064779 27.8320199 1.61649202 29.75850523 -2.90234375 30.43359375 C-9.05071801 30.44150672 -13.31314296 30.4465054 -18 26 C-21.88937897 20.55860924 -21.79042609 15.48149391 -21 9 C-16.63929544 -0.20593186 -9.3488659 -1.1401056 0 0 Z " fill="#FD5086" transform="translate(262,390)"/>
<path d="M0 0 C4.61581142 2.18643699 6.72864085 4.49599804 9 9 C9.82885269 14.54808604 9.7240695 19.47140883 7.3125 24.5625 C4.21064779 27.8320199 1.61649202 29.75850523 -2.90234375 30.43359375 C-9.05071801 30.44150672 -13.31314296 30.4465054 -18 26 C-21.88937897 20.55860924 -21.79042609 15.48149391 -21 9 C-16.63929544 -0.20593186 -9.3488659 -1.1401056 0 0 Z " fill="#FE838A" transform="translate(292,150)"/>
<path d="M0 0 C4.61581142 2.18643699 6.72864085 4.49599804 9 9 C9.82885269 14.54808604 9.7240695 19.47140883 7.3125 24.5625 C4.21064779 27.8320199 1.61649202 29.75850523 -2.90234375 30.43359375 C-9.05071801 30.44150672 -13.31314296 30.4465054 -18 26 C-21.88937897 20.55860924 -21.79042609 15.48149391 -21 9 C-16.63929544 -0.20593186 -9.3488659 -1.1401056 0 0 Z " fill="#FE838A" transform="translate(232,150)"/>
</svg>
